PathFileType	4	(X/Y/Z)	Patient4_TMGait_0pt3_02_left_14.trc.trc
DataRate	CameraRate	NumFrames	NumMarkers	Units	OrigDataRate	OrigDataStartFrame	OrigNumFrames
52.044609665427	52.044609665427	4	33	mm	52.044609665427	1	       141
Frame#	Time	Sacral			L.Shoulder			Chest			R.Shoulder			Neck			R.ASIS			L.ASIS			R.Thigh.Superior			R.Thigh.Lateral			R.Thigh.Inferior			R.Patella			L.Thigh.Superior			L.Thigh.Lateral			L.Thigh.Inferior			L.Patella			L.Shank.Superior			L.Shank.Lateral			L.Shank.Inferior			R.Shank.Superior			R.Shank.Lateral			R.Shank.Inferior			R.Heel			R.Midfoot.Superior			R.Midfoot.Lateral			R.Toe			L.Heel			L.Midfoot.Lateral			L.Midfoot.Superior			L.Toe			L.Elbow			L.Wrist			R.Elbow			R.Wrist			
		X1	Y1	Z1	X2	Y2	Z2	X3	Y3	Z3	X4	Y4	Z4	X5	Y5	Z5	X6	Y6	Z6	X7	Y7	Z7	X8	Y8	Z8	X9	Y9	Z9	X10	Y10	Z10	X11	Y11	Z11	X12	Y12	Z12	X13	Y13	Z13	X14	Y14	Z14	X15	Y15	Z15	X16	Y16	Z16	X17	Y17	Z17	X18	Y18	Z18	X19	Y19	Z19	X20	Y20	Z20	X21	Y21	Z21	X22	Y22	Z22	X23	Y23	Z23	X24	Y24	Z24	X25	Y25	Z25	X26	Y26	Z26	X27	Y27	Z27	X28	Y28	Z28	X29	Y29	Z29	X30	Y30	Z30	X31	Y31	Z31	X32	Y32	Z32	X33	Y33	Z33	

1	27.080000000000	691.447190196406	999.851685357634	493.392353262256	895.662801754107	1437.695506560404	347.326509277337	970.244072493942	1363.340617843104	520.881650344039	857.386096367965	1431.253274483290	679.950830575050	853.590480485435	1493.038426386442	504.557934761335	911.130649321644	939.025180007276	633.354601324777	922.003242324146	960.463158583076	360.838808948902	967.981419543488	742.606875506528	601.756320296710	888.533303944859	627.319382734275	650.691207275652	975.040801007633	581.686067779353	574.922881685289	981.214084016290	490.764448516325	579.222153254369	980.827932660200	750.518328637396	388.349321122670	915.035416302448	627.761765280182	315.660586761474	1003.948364117382	552.851276691133	383.895708435632	1001.178162589645	464.655459107682	379.267213316122	930.108653652771	405.997043046036	370.203317446036	790.079445395780	369.404127555776	314.367506517177	767.431106896279	242.520708375318	371.207570815780	947.503430558902	401.330613916240	581.260775329002	870.423478917908	299.036469692548	638.318248446730	909.718418407908	204.308593510919	574.111604805885	769.644746540771	42.559182558474	540.822514101583	941.706027319645	97.268040012485	578.027231825702	852.774225023417	36.983007679469	615.368666551982	1060.853666174034	44.486531653260	605.639865786332	570.860847194205	191.675616257146	400.184871865043	630.179809050069	139.601812268060	325.185416399921	734.697349618121	142.042201059475	351.395180050022	807.641847465380	28.094933667880	331.926732327367	985.224565053311	1116.177621513582	195.137217580443	1242.247255881306	1059.445675484761	200.858033776199	744.001265072249	1101.942037937778	789.940612447487	784.110367568819	847.008507879834	839.061722065180	
2	27.099214285714	689.651400460389	998.727100255892	498.202157116652	891.172999125666	1436.383543389945	348.074447323271	968.620165633452	1362.801320600389	520.522233414131	858.492124203524	1430.857881754092	681.291327207776	851.789592843211	1492.245366816622	505.611520926146	911.472875093359	938.432060615621	635.330211243505	918.765578215013	960.401539565311	362.742170031262	968.200970086350	741.773412655338	602.474693233066	889.053524183872	626.067918057748	651.438144169065	974.715820133851	580.644006894165	574.673510445361	980.695591430869	489.301811746104	578.398903793830	982.544528773323	754.132048628462	392.176860794846	921.484261811384	630.189116328950	319.005109266773	1011.757329929038	557.669987363855	388.344256870321	1011.338530932658	468.875077659491	383.244981883086	940.511934327483	409.351223828310	373.014195083539	800.076261445824	373.201254861695	317.062993519885	777.863423714579	245.461105233068	372.404108408286	945.913128379086	399.968196035681	580.678584115522	868.130966573957	298.389606768036	638.115504472725	905.671016305597	203.510473301411	573.509012708150	763.720907450572	42.591304128126	540.894363187381	935.871500744576	97.158918544723	577.792977097026	846.863313136551	37.023047266077	615.414184260224	1054.964087995331	44.340314835062	605.644369415434	581.375603634827	192.744825795319	401.129539389215	640.898903748853	142.661338629927	325.003400152982	745.596769808185	145.473887067234	351.076311907740	819.216394392957	31.559221660977	329.016102243371	972.825517791174	1110.565739102231	199.078829056449	1222.797547519665	1034.691431321585	203.052197737743	756.038236279690	1099.028668731240	795.079919154107	807.495946254379	846.767417473057	844.471653094946	
3	27.118428571429	687.795976391158	997.564255519332	503.093507981319	886.565358470423	1434.973320662512	348.773839245762	966.976955693470	1362.220584918619	520.069351332878	859.674047642989	1430.462127597126	682.569182753742	849.938862764577	1491.393227857984	506.599244499406	911.779502678362	937.749619709726	637.254286743376	915.435970249709	960.345102148544	364.601081447456	968.358037157153	740.884551744360	603.075159986015	889.608400839901	624.756716514057	652.136115572507	974.376979045926	579.560123630492	574.319876369188	980.173447666703	487.786158408184	577.487911392557	984.116197713067	757.768733480998	395.984655074603	927.744255471547	632.640137760269	322.373553504822	1019.333716948049	562.531619966618	392.812497794300	1021.333309225888	473.226572808874	387.238958133704	950.999522875798	412.715273054510	375.799051683555	810.310475117619	376.372521258853	319.809955207187	789.222306578703	247.690884778067	373.587652452430	944.282152876493	398.554442234307	580.035577617157	865.787983888283	297.720416514893	637.887442312969	901.521443864503	202.678548684526	572.877741017471	757.654509540821	42.618999441647	540.961157929186	929.894806537881	97.051237254139	577.559006408393	840.811194042469	37.062605326522	615.458150798032	1048.933545434776	44.187053820413	605.646386811431	593.202794550140	192.111706056245	402.199624879389	653.011919585975	144.426130521462	324.851274466442	757.837613153370	148.146057547454	350.716294847593	832.680834031218	34.855745622536	325.869389817152	960.140175290676	1104.762523500819	203.223140335981	1201.871529399726	1008.990703923072	205.369608832692	768.371048622998	1096.153256300398	800.121900940649	832.032561215819	846.989054317915	849.586514269870	
4	27.137642857143	685.913717646055	996.395463094974	507.948516126875	881.939083718722	1433.469818849895	349.371943553335	965.362195778393	1361.600015018373	519.485770964642	860.939045227205	1430.087540117929	683.703676515512	848.083541829226	1490.491087011282	507.449653580906	912.015425532434	936.967886848607	639.041269113644	912.049921061287	960.288091094622	366.344297648207	968.400217614210	739.946530656303	603.496384195931	890.157345564228	623.406177863120	652.748391552492	973.990709448181	578.451366113441	573.838469690237	979.620017457128	486.245264753855	576.491506931331	985.395234830322	761.312019961548	399.626615951499	933.488736284253	635.043121068395	325.644910588428	1026.293049855060	567.294911143388	397.138356041781	1030.740830789561	477.643055347383	391.105507454241	961.269420436975	416.004776274184	378.450496667998	820.628874976113	378.522277488512	322.512727227038	801.648186202509	248.852261338861	374.717808617738	942.603978736692	397.115424918802	579.333973537603	863.411657882620	297.040878891050	637.635539262702	897.325707004484	201.828021638361	572.231681198033	751.552003049641	42.641122925239	541.018838070573	923.877477550973	96.945722834692	577.329348429917	834.723209304400	37.099771783510	615.498237852609	1042.867252023145	44.027778391750	605.645722356336	606.709487265879	189.064337602050	403.393681268854	666.928654217276	144.276287496241	324.756786079059	771.765138314106	149.665193246637	350.337652973347	848.583182121893	37.853312934997	322.582941183606	947.350765682071	1098.878821627341	207.538598589234	1179.271083000043	982.827214972743	207.834581427407	780.810555651918	1093.442933046351	804.844677037826	857.566136213622	848.038943969251	854.041252083383	
